HIERARCHY
ROOT Hips
{
	OFFSET 0.00000 0.00000 0.00000
	CHANNELS 6 Xposition Yposition Zposition Zrotation Yrotation Xrotation 
	JOINT LHipJoint
	{
		OFFSET 0 0 0
		CHANNELS 3 Zrotation Yrotation Xrotation
		JOINT LeftHip
		{
			OFFSET 1.62329 -1.80800 0.67318
			CHANNELS 3 Zrotation Yrotation Xrotation
			JOINT LeftKnee
			{
				OFFSET 2.57139 -7.06484 0.00000
				CHANNELS 3 Zrotation Yrotation Xrotation
				JOINT LeftAnkle
				{
					OFFSET 2.52017 -6.92413 0.00000
					CHANNELS 3 Zrotation Yrotation Xrotation
					JOINT LeftToe
					{
						OFFSET 0.23295 -0.64001 2.10214
						CHANNELS 3 Zrotation Yrotation Xrotation
						End Site
						{
							OFFSET 0.00000 -0.00000 1.10139
						}
					}
				}
			}
		}
	}
	JOINT RHipJoint
	{
		OFFSET 0 0 0
		CHANNELS 3 Zrotation Yrotation Xrotation
		JOINT RightHip
		{
			OFFSET -1.48061 -1.80800 0.67318
			CHANNELS 3 Zrotation Yrotation Xrotation
			JOINT RightKnee
			{
				OFFSET -2.63258 -7.23296 0.00000
				CHANNELS 3 Zrotation Yrotation Xrotation
				JOINT RightAnkle
				{
					OFFSET -2.54779 -7.00000 0.00000
					CHANNELS 3 Zrotation Yrotation Xrotation
					JOINT RightToe
					{
						OFFSET -0.23067 -0.63376 2.12161
						CHANNELS 3 Zrotation Yrotation Xrotation
						End Site
						{
							OFFSET -0.00000 -0.00000 1.11000
						}
					}
				}
			}
		}
	}
	JOINT lowerback
	{
		OFFSET 0 0 0
		CHANNELS 3 Zrotation Yrotation Xrotation
		JOINT Chest
		{
			OFFSET -0.02108 2.07573 -0.16981
			CHANNELS 3 Zrotation Yrotation Xrotation
			JOINT Chest2
			{
				OFFSET 0.05070 2.08439 -0.03141
				CHANNELS 3 Zrotation Yrotation Xrotation
				JOINT lowerneck
				{
					OFFSET 0 0 0
					CHANNELS 3 Zrotation Yrotation Xrotation
					JOINT Neck
					{
						OFFSET -0.10731 1.60408 0.31370
						CHANNELS 3 Zrotation Yrotation Xrotation
						JOINT Head
						{
							OFFSET 0.08411 1.65679 -0.30822
							CHANNELS 3 Zrotation Yrotation Xrotation
							End Site
							{
								OFFSET 0.03911 1.69149 -0.14146
							}
						}
					}
				}
				JOINT LeftCollar
				{
					OFFSET 0 0 0
					CHANNELS 3 Zrotation Yrotation Xrotation
					JOINT LeftShoulder
					{
						OFFSET 3.52315 0.73219 -0.54694
CHANNELS 3 Zrotation Xrotation Yrotation
						JOINT LeftElbow
						{
OFFSET 0 -5.324620 -0.000000
CHANNELS 3 Zrotation Xrotation Yrotation
							JOINT LeftWrist
							{
OFFSET 0 -3.484020 -0.000000
CHANNELS 3 Zrotation Xrotation Yrotation
								JOINT lhand
								{
									OFFSET 0 0 0
CHANNELS 3 Zrotation Xrotation Yrotation
									JOINT LFingers
									{
OFFSET 0 -0.572480 -0.000000
CHANNELS 3 Zrotation Xrotation Yrotation
										End Site
										{
OFFSET 0 -0.461540 -0.000000
										}
									}
								}
								JOINT LThumb
								{
OFFSET 0 0.000000 0.000000
CHANNELS 3 Zrotation Xrotation Yrotation
									End Site
									{
OFFSET 0 -0.468590 0.468590
									}
								}
							}
						}
					}
				}
				JOINT RightCollar
				{
					OFFSET 0 0 0
					CHANNELS 3 Zrotation Yrotation Xrotation
					JOINT RightShoulder
					{
						OFFSET -3.41766 0.93592 -0.10019
CHANNELS 3 Zrotation Xrotation Yrotation
						JOINT RightElbow
						{
OFFSET 0 -5.335890 -0.000000
CHANNELS 3 Zrotation Xrotation Yrotation
							JOINT RightWrist
							{
OFFSET 0 -3.641340 -0.000000
CHANNELS 3 Zrotation Xrotation Yrotation
								JOINT rhand
								{
									OFFSET 0 0 0
CHANNELS 3 Zrotation Xrotation Yrotation
									JOINT RFingers
									{
OFFSET 0 -0.734810 -0.000000
CHANNELS 3 Zrotation Xrotation Yrotation
										End Site
										{
OFFSET 0 -0.592420 -0.000000
										}
									}
								}
								JOINT RThumb
								{
OFFSET 0 0.000000 0.000000
CHANNELS 3 Zrotation Xrotation Yrotation
									End Site
									{
OFFSET 0 -0.601470 0.601470
									}
								}
							}
						}
					}
				}
			}
		}
	}
}
MOTION
Frames: 7
Frame Time: 0.008333333333333333
-1.922696 18.138245 6.056139 19.968277 -51.475562 7.021992 0.000000 0.000000 0.000000 -20.362140 -14.295594 -14.539243 2.618847 10.050880 29.141743 0.141486 4.560785 6.951004 0.210214 -2.947520 -8.132893 0.000000 0.000000 0.000000 9.482465 3.457484 -42.704518 -2.854417 -10.455582 30.464950 -0.540297 -0.645876 -14.134802 -1.269090 -7.140430 20.132117 2.295490 0.565120 14.930622 8.039921 0.984202 6.448700 7.085923 0.298827 -1.621664 -9.730836 -11.750039 -8.200226 10.022478 -18.036140 26.330295 2.811474 -8.060597 11.791343 0.000000 0.000000 0.000000 0.324231 -26.203596 -79.504991 43.628677 -50.077957 21.181906 26.022888 -14.551571 -53.583575 0.000000 0.000000 0.000000 -7.125000 0.000000 0.000000 -67.292815 81.523859 59.184137 0.000000 0.000000 0.000000 -16.490888 -44.603840 2.610221 -21.978069 -32.952189 -6.573985 -36.218308 -30.235137 20.503784 0.000000 0.000000 0.000000 7.125000 0.000000 0.000000 -8.317531 54.656764 1.984199
-1.909574 18.087979 6.120914 18.458132 -53.896345 8.726313 0.000000 0.000000 0.000000 -21.283812 -12.064310 -14.442033 2.558375 9.943271 28.793338 -0.217651 9.738703 1.985442 0.073348 -1.745651 -4.803346 0.000000 0.000000 0.000000 11.500143 3.286028 -44.183807 -2.867721 -10.477823 30.538347 -0.425884 0.903695 -12.045427 -1.175032 -6.875787 19.349674 0.841730 -1.057297 14.696834 7.644677 -1.347071 6.347485 7.870716 -0.882221 -1.322531 -10.912854 -9.514651 -9.457651 9.554864 -14.626989 27.905312 3.333140 -6.688875 12.304148 0.000000 0.000000 0.000000 -4.809917 -34.377241 -81.983016 48.887833 -52.536556 25.288780 25.537421 -13.835870 -49.882798 0.000000 0.000000 0.000000 -7.125000 0.000000 0.000000 -45.413952 79.995458 37.811784 0.000000 0.000000 0.000000 -27.134828 -49.547029 -9.963452 -21.447064 -32.346467 -6.287495 -39.182031 -27.843180 17.957870 0.000000 0.000000 0.000000 7.125000 0.000000 0.000000 -11.605219 52.301688 2.108834
-1.941848 18.047997 6.185181 17.810248 -55.264060 9.147380 0.000000 0.000000 0.000000 -22.036061 -10.157934 -13.792711 2.398182 9.650370 27.851816 -0.424868 12.142505 -0.183911 0.040334 -1.295914 -3.563549 0.000000 0.000000 0.000000 11.998971 4.412679 -44.157953 -2.946480 -10.607959 30.968849 -0.494657 0.761012 -13.043336 -0.919320 -6.108878 17.100541 0.384584 -1.472748 14.625878 6.612187 -1.944801 6.192678 7.093756 -1.155847 -1.403358 -9.547083 -8.477157 -10.056507 8.929044 -13.366445 29.057886 3.069089 -6.054898 12.561641 0.000000 0.000000 0.000000 -7.839214 -37.935271 -87.383560 53.033746 -54.147862 28.615536 21.627534 -15.338798 -48.649151 0.000000 0.000000 0.000000 -7.125000 0.000000 0.000000 -43.570053 77.644270 34.324261 0.000000 0.000000 0.000000 -34.895559 -49.733568 -18.545238 -22.288470 -33.301479 -6.743549 -37.530657 -25.956931 17.191401 0.000000 0.000000 0.000000 7.125000 0.000000 0.000000 -9.807450 51.033213 1.469808
-2.007717 18.042457 6.219700 17.645223 -54.565193 8.889694 0.000000 0.000000 0.000000 -21.626446 -9.720513 -13.136717 2.330545 9.523046 27.445611 -0.232006 9.658080 1.359110 0.075995 -1.775529 -4.885743 0.000000 0.000000 0.000000 11.660400 5.023801 -43.415163 -3.078616 -10.821188 31.679324 -0.621518 -0.168011 -14.959558 -0.754723 -5.546815 15.475469 0.424350 -1.860032 14.369025 6.385962 -2.447147 6.106222 6.888471 -1.396902 -1.310826 -9.033975 -7.986495 -9.877644 8.661551 -12.689536 28.986626 2.999729 -5.751537 12.351120 0.000000 0.000000 0.000000 -6.771735 -37.288441 -90.099028 55.129301 -54.865738 30.321724 17.306052 -21.349878 -46.914868 0.000000 0.000000 0.000000 -7.125000 0.000000 0.000000 -42.020597 74.850771 30.780877 0.000000 0.000000 0.000000 -37.365392 -48.060170 -17.326941 -23.027331 -34.118564 -7.153668 -39.274461 -18.839344 16.735246 0.000000 0.000000 0.000000 7.125000 0.000000 0.000000 -11.640305 50.842005 1.695233
-2.073709 18.066906 6.191321 18.129507 -52.553204 8.234901 0.000000 0.000000 0.000000 -20.364653 -10.832884 -13.703350 2.516801 9.868340 28.551487 0.015048 5.052564 4.018771 0.128746 -2.302492 -6.342858 0.000000 0.000000 0.000000 10.877759 5.175982 -42.296942 -3.078679 -10.821308 31.679623 -0.774372 -1.780573 -17.359106 -0.691491 -5.314493 14.808097 0.539008 -1.731960 14.399233 6.832031 -2.251106 6.086619 7.282106 -1.303703 -1.352245 -9.813369 -8.340884 -9.774738 9.205829 -13.117068 28.499285 3.265484 -5.956302 12.290631 0.000000 0.000000 0.000000 -3.296998 -33.493979 -89.080139 52.917415 -54.105540 28.521347 16.087964 -29.235059 -47.374623 0.000000 0.000000 0.000000 -7.125000 0.000000 0.000000 -44.554517 74.678223 32.644114 0.000000 0.000000 0.000000 -33.376804 -46.960857 -10.449204 -24.942712 -36.145232 -8.256106 -38.077495 -21.103778 17.724318 0.000000 0.000000 0.000000 7.125000 0.000000 0.000000 -10.400541 51.783900 1.753589
-2.137698 18.106314 6.104901 18.014128 -49.655776 8.413054 0.000000 0.000000 0.000000 -18.122126 -12.819786 -15.901773 2.945142 10.605692 30.961433 0.214805 0.127601 8.708448 0.212364 -2.965975 -8.184177 0.000000 0.000000 0.000000 10.498703 5.356079 -41.174599 -2.960421 -10.630685 31.044272 -0.867298 -4.375504 -19.702693 -0.659239 -5.193003 14.459851 2.102230 -0.875700 14.601639 7.240339 -0.923949 6.297175 6.623275 -0.627602 -1.413922 -9.258975 -9.503903 -9.019651 9.188125 -14.631533 26.729891 2.948916 -6.593302 11.571867 0.000000 0.000000 0.000000 0.896219 -27.526044 -85.090753 45.936501 -51.218879 22.966565 11.281387 -38.967803 -46.697095 0.000000 0.000000 0.000000 -7.125000 0.000000 0.000000 -47.176449 72.487720 32.740668 0.000000 0.000000 0.000000 -24.730492 -45.915095 0.547325 -24.819315 -36.018737 -8.183417 -35.101851 -21.840474 19.186931 0.000000 0.000000 0.000000 7.125000 0.000000 0.000000 -7.166674 52.880964 1.395394
-2.227533 18.144640 6.012632 20.243177 -46.776125 6.664763 0.000000 0.000000 0.000000 -17.933732 -15.347903 -17.596119 3.289956 11.150255 32.788263 0.480420 -2.605723 14.297960 0.003241 0.326638 0.897497 0.000000 0.000000 0.000000 8.298364 4.982592 -40.131480 -2.960712 -10.631144 31.045779 -1.066269 -5.376198 -22.146958 -0.926278 -6.131216 17.165501 2.216589 0.761756 15.362164 7.598483 1.257197 6.712823 6.603187 0.449580 -1.595770 -10.253374 -11.330277 -8.628704 10.117015 -17.189884 25.972201 3.041885 -7.706259 11.697475 0.000000 0.000000 0.000000 4.841797 -20.651431 -79.593641 39.555392 -47.803621 18.109375 15.839406 -35.112149 -49.060725 0.000000 0.000000 0.000000 -7.125000 0.000000 0.000000 -50.129592 75.561745 37.985472 0.000000 0.000000 0.000000 -16.910102 -43.574274 13.623372 -20.862652 -31.666688 -5.978143 -31.135249 -22.704554 22.213863 0.000000 0.000000 0.000000 7.125000 0.000000 0.000000 -2.448866 55.468178 0.626947
